<svg width="349" height="171" viewBox="0 0 349 171" fill="none" xmlns="http://www.w3.org/2000/svg">
<path d="M57.7273 36.6445C57.59 35.133 56.9786 33.9583 55.8935 33.1202C54.8225 32.2683 53.291 31.8424 51.2994 31.8424C49.9809 31.8424 48.8818 32.0141 48.0029 32.3576C47.1241 32.7011 46.4646 33.1751 46.025 33.7797C45.5858 34.3705 45.3591 35.0506 45.3451 35.8201C45.3178 36.4521 45.4416 37.0086 45.7163 37.4895C46.0046 37.9703 46.4166 38.3963 46.9523 38.7673C47.5016 39.1245 48.1611 39.4405 48.9303 39.7153C49.6994 39.9901 50.5647 40.2306 51.526 40.4367L55.152 41.2611C57.2396 41.7145 59.0798 42.319 60.6734 43.0748C62.2802 43.8305 63.6263 44.7304 64.7114 45.7749C65.8101 46.8191 66.6409 48.0211 67.2043 49.3813C67.7672 50.7416 68.0559 52.2669 68.0695 53.9568C68.0559 56.6224 67.3829 58.9099 66.0503 60.8197C64.7182 62.7295 62.8023 64.1932 60.3022 65.2097C57.8166 66.2268 54.8152 66.735 51.2994 66.735C47.7695 66.735 44.6929 66.2059 42.0696 65.1481C39.4462 64.0898 37.4066 62.4824 35.9507 60.3251C34.4949 58.1681 33.7463 55.4408 33.7051 52.1431L43.4705 52.1431C43.5529 53.5034 43.9169 54.6369 44.5624 55.5438C45.2079 56.4506 46.0939 57.1375 47.2202 57.6045C48.3601 58.072 49.6786 58.3055 51.1757 58.3055C52.549 58.3055 53.7166 58.1201 54.6779 57.7492C55.6533 57.3778 56.4016 56.8628 56.9237 56.2035C57.4454 55.5438 57.7133 54.7879 57.7273 53.9364C57.7133 53.1393 57.4663 52.4592 56.9854 51.896C56.5049 51.3188 55.763 50.8241 54.7604 50.412C53.7714 49.9858 52.5077 49.5945 50.9699 49.2372L46.5607 48.2065C42.9074 47.3686 40.03 46.0152 37.9285 44.1465C35.8271 42.2641 34.7833 39.7222 34.797 36.5208C34.7833 33.9102 35.4838 31.6225 36.8984 29.6577C38.3131 27.6929 40.2703 26.1609 42.77 25.0617C45.2698 23.9625 48.1199 23.4129 51.3198 23.4129C54.5886 23.4129 57.425 23.9693 59.8286 25.0823C62.2458 26.1815 64.1208 27.7272 65.4529 29.7195C66.785 31.7118 67.4649 34.0201 67.4925 36.6445L57.7273 36.6445ZM71.1185 23.99L82.5113 23.99L91.4321 41.6527L91.8029 41.6527L100.724 23.99L112.117 23.99L96.6857 52.1019L96.6857 66.1991L86.5498 66.1991L86.5498 52.1019L71.1185 23.99ZM116.392 23.99L129.021 23.99L139.734 50.1231L140.228 50.1231L150.942 23.99L163.57 23.99L163.57 66.1991L153.64 66.1991L153.64 40.2718L153.29 40.2718L143.154 65.9311L136.808 65.9311L126.672 40.1275L126.322 40.1275L126.322 66.1991L116.392 66.1991L116.392 23.99ZM169.931 66.1991L169.931 23.99L187.526 23.99C190.685 23.99 193.329 24.4365 195.458 25.3296C197.6 26.2227 199.207 27.473 200.278 29.0806C201.364 30.6882 201.906 32.55 201.906 34.6659C201.906 36.2735 201.569 37.7093 200.897 38.9734C200.224 40.2237 199.296 41.2611 198.115 42.0855C196.934 42.9099 195.567 43.487 194.015 43.8167L194.015 44.2289C195.718 44.3114 197.291 44.7716 198.733 45.6098C200.189 46.4477 201.357 47.6157 202.236 49.1134C203.115 50.5974 203.554 52.3562 203.554 54.3898C203.554 56.6569 202.978 58.6832 201.824 60.4697C200.67 62.2421 199.001 63.6436 196.817 64.6738C194.633 65.6908 191.983 66.1991 188.865 66.1991L169.931 66.1991ZM180.129 57.9759L186.434 57.9759C188.645 57.9759 190.273 57.5565 191.316 56.7186C192.374 55.8802 192.903 54.7126 192.903 53.215C192.903 52.1295 192.649 51.195 192.14 50.412C191.632 49.6149 190.911 49.0037 189.978 48.5774C189.043 48.1381 187.924 47.9182 186.619 47.9182L180.129 47.9182L180.129 57.9759ZM180.129 41.3435L185.775 41.3435C186.887 41.3435 187.876 41.158 188.741 40.787C189.607 40.4161 190.279 39.8802 190.76 39.1795C191.255 38.4787 191.502 37.6337 191.502 36.6445C191.502 35.2293 191 34.1163 189.998 33.3056C188.995 32.495 187.642 32.0896 185.94 32.0896L180.129 32.0896L180.129 41.3435ZM218.655 23.99L218.655 66.1991L208.457 66.1991L208.457 23.99L218.655 23.99ZM234.184 66.1991L223.224 66.1991L237.46 23.99L251.037 23.99L265.273 66.1991L254.313 66.1991L244.403 34.6247L244.073 34.6247L234.184 66.1991ZM232.722 49.5877L255.631 49.5877L255.631 57.337L232.722 57.337L232.722 49.5877ZM305.725 23.99L305.725 66.1991L297.072 66.1991L280.281 41.8381L280.014 41.8381L280.014 66.1991L269.816 66.1991L269.816 23.99L278.592 23.99L295.197 48.3095L295.548 48.3095L295.548 23.99L305.725 23.99Z" fill="white"/>
<path d="M205.661 114.261L205.661 119.929L208.494 119.929L208.494 131.265C208.494 133.52 207.598 135.682 206.004 137.276C204.411 138.871 202.249 139.766 199.995 139.766C197.741 139.766 195.58 138.871 193.986 137.276C192.392 135.682 191.497 133.52 191.497 131.265L191.497 119.929L194.33 119.929L194.33 114.261L185.831 114.261L185.831 131.265C185.835 134.53 186.965 137.693 189.029 140.222C191.093 142.751 193.966 144.49 197.162 145.148L197.162 148.268C197.162 151.274 195.968 154.157 193.844 156.283C191.718 158.409 188.836 159.603 185.831 159.603C182.826 159.603 179.944 158.409 177.819 156.283C175.694 154.157 174.5 151.274 174.5 148.268L174.5 142.079C176.39 141.41 177.983 140.095 178.998 138.365C180.012 136.635 180.382 134.602 180.043 132.626C179.704 130.649 178.678 128.856 177.145 127.563C175.612 126.271 173.672 125.562 171.667 125.562C169.662 125.562 167.722 126.271 166.19 127.563C164.657 128.856 163.63 130.649 163.291 132.626C162.952 134.602 163.322 136.635 164.337 138.365C165.351 140.095 166.944 141.41 168.834 142.079L168.834 148.268C168.834 152.778 170.625 157.102 173.812 160.291C177 163.48 181.323 165.271 185.831 165.271C190.339 165.271 194.662 163.48 197.849 160.291C201.037 157.102 202.828 152.778 202.828 148.268L202.828 145.148C206.025 144.49 208.897 142.751 210.961 140.222C213.026 137.693 214.155 134.53 214.159 131.265L214.159 114.261L205.661 114.261ZM171.667 131.265C172.227 131.265 172.775 131.431 173.241 131.742C173.707 132.054 174.07 132.496 174.284 133.014C174.499 133.532 174.555 134.102 174.446 134.651C174.336 135.201 174.066 135.706 173.67 136.102C173.274 136.499 172.769 136.769 172.22 136.878C171.67 136.987 171.101 136.931 170.583 136.717C170.065 136.502 169.623 136.139 169.312 135.673C169.001 135.207 168.834 134.659 168.834 134.099C168.834 133.347 169.133 132.626 169.664 132.095C170.196 131.563 170.916 131.265 171.667 131.265Z" fill="white"/>
<path d="M202.828 91.5905L191.497 91.5905L191.497 85.9228L185.831 85.9228L185.831 91.5905L163.169 91.5905L163.169 85.9228L157.503 85.9228L157.503 91.5905L146.172 91.5905C144.67 91.5905 143.228 92.1877 142.166 93.2505C141.103 94.3133 140.506 95.7552 140.506 97.2583L140.506 153.936C140.506 155.439 141.103 156.881 142.166 157.943C143.228 159.006 144.67 159.603 146.172 159.603L157.503 159.603L157.503 153.936L146.172 153.936L146.172 97.2583L157.503 97.2583L157.503 102.926L163.169 102.926L163.169 97.2583L185.831 97.2583L185.831 102.926L191.497 102.926L191.497 97.2583L202.828 97.2583L202.828 108.594L208.493 108.594L208.493 97.2583C208.493 95.7552 207.897 94.3133 206.834 93.2505C205.772 92.1877 204.33 91.5905 202.828 91.5905Z" fill="white"/>
</svg>
