<svg width="292" height="75" viewBox="0 0 292 75" fill="none" xmlns="http://www.w3.org/2000/svg">
<path d="M100.409 31.9619C100.319 30.9738 99.9186 30.2057 99.2081 29.6576C98.5069 29.1008 97.5042 28.8223 96.2003 28.8223C95.3371 28.8223 94.6175 28.9346 94.0421 29.1592C93.4667 29.3838 93.0349 29.6938 92.7471 30.0889C92.4595 30.4752 92.3111 30.9199 92.3019 31.4229C92.2841 31.8362 92.3651 32.1999 92.545 32.5144C92.7337 32.8287 93.0034 33.1073 93.3542 33.3498C93.7139 33.5834 94.1456 33.79 94.6492 33.9697C95.1528 34.1493 95.7193 34.3064 96.3487 34.4413L98.7227 34.9802C100.089 35.2767 101.294 35.6718 102.338 36.166C103.39 36.6602 104.271 37.2486 104.981 37.9313C105.701 38.614 106.245 39.3999 106.613 40.2892C106.982 41.1786 107.171 42.1758 107.18 43.2806C107.171 45.0234 106.73 46.519 105.858 47.7676C104.986 49.0162 103.731 49.9731 102.095 50.6377C100.467 51.3027 98.5022 51.635 96.2003 51.635C93.8892 51.635 91.8749 51.289 90.1573 50.5974C88.4398 49.9055 87.1044 48.8546 86.1512 47.4442C85.1981 46.034 84.7082 44.2509 84.6812 42.0949L91.0746 42.0949C91.1286 42.9842 91.3669 43.7253 91.7894 44.3182C92.212 44.9111 92.7922 45.3602 93.5296 45.6655C94.2759 45.9711 95.1391 46.1238 96.1193 46.1238C97.0184 46.1238 97.7829 46.0026 98.4123 45.7601C99.0509 45.5173 99.5408 45.1805 99.8827 44.7495C100.224 44.3182 100.4 43.824 100.409 43.2673C100.4 42.7461 100.238 42.3015 99.923 41.9333C99.6085 41.5559 99.1227 41.2325 98.4663 40.963C97.8188 40.6844 96.9914 40.4286 95.9846 40.195L93.0978 39.5211C90.706 38.9733 88.822 38.0884 87.4462 36.8668C86.0702 35.636 85.3868 33.9741 85.396 31.8809C85.3868 30.1743 85.8456 28.6786 86.7717 27.394C87.6979 26.1094 88.9792 25.1078 90.6161 24.3891C92.2527 23.6705 94.1186 23.3112 96.2137 23.3112C98.3538 23.3112 100.211 23.675 101.785 24.4026C103.367 25.1213 104.595 26.1319 105.467 27.4344C106.339 28.737 106.784 30.2461 106.802 31.9619L100.409 31.9619ZM109.176 23.6885L116.635 23.6885L122.476 35.2364L122.719 35.2364L128.559 23.6885L136.019 23.6885L125.915 42.0679L125.915 51.2846L119.279 51.2846L119.279 42.0679L109.176 23.6885ZM138.817 23.6885L147.086 23.6885L154.1 40.7742L154.423 40.7742L161.438 23.6885L169.706 23.6885L169.706 51.2846L163.205 51.2846L163.205 34.3334L162.975 34.3334L156.339 51.1094L152.184 51.1094L145.548 34.2391L145.319 34.2391L145.319 51.2846L138.817 51.2846L138.817 23.6885ZM173.871 51.2846L173.871 23.6885L185.39 23.6885C187.458 23.6885 189.189 23.9804 190.583 24.5643C191.986 25.1482 193.038 25.9657 193.739 27.0167C194.45 28.0677 194.805 29.285 194.805 30.6685C194.805 31.7194 194.584 32.6582 194.144 33.4847C193.703 34.302 193.096 34.9802 192.323 35.5192C191.55 36.0581 190.655 36.4355 189.639 36.651L189.639 36.9205C190.754 36.9744 191.783 37.2753 192.728 37.8234C193.681 38.3712 194.445 39.1349 195.021 40.114C195.596 41.0843 195.884 42.2342 195.884 43.5637C195.884 45.046 195.506 46.3708 194.751 47.5387C193.996 48.6975 192.903 49.6138 191.473 50.2874C190.043 50.9523 188.308 51.2846 186.267 51.2846L173.871 51.2846ZM180.547 45.9083L184.675 45.9083C186.123 45.9083 187.188 45.6341 187.872 45.0863C188.564 44.5381 188.91 43.7748 188.91 42.7957C188.91 42.086 188.744 41.475 188.411 40.963C188.079 40.4419 187.606 40.0423 186.995 39.7636C186.384 39.4764 185.651 39.3326 184.797 39.3326L180.547 39.3326L180.547 45.9083ZM180.547 35.0342L184.243 35.0342C184.972 35.0342 185.619 34.9129 186.186 34.6705C186.752 34.4277 187.193 34.0776 187.508 33.6193C187.831 33.1613 187.993 32.6087 187.993 31.9619C187.993 31.0367 187.665 30.3089 187.008 29.7792C186.352 29.249 185.466 28.984 184.351 28.984L180.547 28.984L180.547 35.0342ZM205.771 23.6885L205.771 51.2846L199.094 51.2846L199.094 23.6885L205.771 23.6885ZM215.938 51.2846L208.762 51.2846L218.083 23.6885L226.972 23.6885L236.292 51.2846L229.116 51.2846L222.628 30.6415L222.413 30.6415L215.938 51.2846ZM214.981 40.4241L229.98 40.4241L229.98 45.4906L214.981 45.4906L214.981 40.4241ZM262.777 23.6885L262.777 51.2846L257.112 51.2846L246.119 35.3576L245.943 35.3576L245.943 51.2846L239.266 51.2846L239.266 23.6885L245.013 23.6885L255.884 39.5884L256.114 39.5884L256.114 23.6885L262.777 23.6885Z" fill="white"/>
<path d="M62.2429 29.9407L62.2429 33.6463L64.0976 33.6463L64.0976 41.0573C64.0976 42.5315 63.5115 43.9453 62.4678 44.9876C61.4245 46.0301 60.0093 46.6156 58.5335 46.6156C57.0578 46.6156 55.6426 46.0301 54.5993 44.9876C53.5556 43.9453 52.9695 42.5315 52.9695 41.0573L52.9695 33.6463L54.8242 33.6463L54.8242 29.9407L49.2602 29.9407L49.2602 41.0573C49.2628 43.192 50.0023 45.2603 51.3537 46.9135C52.7051 48.5671 54.5859 49.7043 56.6789 50.1341L56.6789 52.1739C56.6789 54.1393 55.8972 56.0244 54.5061 57.4144C53.1146 58.8042 51.2276 59.585 49.2602 59.585C47.2927 59.585 45.4057 58.8042 44.0143 57.4144C42.6231 56.0244 41.8415 54.1393 41.8415 52.1739L41.8415 48.1275C43.0789 47.6905 44.122 46.8305 44.7861 45.6993C45.4502 44.5684 45.6927 43.2394 45.4707 41.9472C45.2487 40.6548 44.5766 39.4826 43.573 38.6375C42.5697 37.7923 41.2993 37.3287 39.9868 37.3287C38.6743 37.3287 37.4039 37.7923 36.4006 38.6375C35.397 39.4826 34.7249 40.6548 34.5029 41.9472C34.2809 43.2394 34.5234 44.5684 35.1875 45.6993C35.8516 46.8305 36.8947 47.6905 38.1321 48.1275L38.1321 52.1739C38.1321 55.1223 39.3046 57.9498 41.3913 60.0347C43.4783 62.1193 46.3087 63.2905 49.2602 63.2905C52.2116 63.2905 55.042 62.1193 57.1287 60.0347C59.2158 57.9498 60.3882 55.1223 60.3882 52.1739L60.3882 50.1341C62.4812 49.7043 64.362 48.5671 65.7134 46.9135C67.0648 45.2603 67.8042 43.192 67.8069 41.0573L67.8069 29.9407L62.2429 29.9407ZM39.9868 41.0573C40.3536 41.0573 40.712 41.1661 41.0171 41.3695C41.3222 41.5731 41.5599 41.8625 41.7002 42.201C41.8406 42.5395 41.8774 42.9122 41.8059 43.2714C41.7343 43.631 41.5575 43.961 41.2981 44.2201C41.0388 44.4795 40.7085 44.6558 40.3485 44.7273C39.9889 44.7987 39.6159 44.762 39.277 44.6217C38.9381 44.4815 38.6485 44.2441 38.4446 43.9393C38.241 43.6349 38.1321 43.2765 38.1321 42.9101C38.1321 42.4186 38.3274 41.9475 38.6755 41.6001C39.0233 41.2524 39.4948 41.0573 39.9868 41.0573Z" fill="white"/>
<path d="M60.3882 15.1186L52.9695 15.1186L52.9695 11.413L49.2601 11.413L49.2601 15.1186L34.4227 15.1186L34.4227 11.413L30.7134 11.413L30.7134 15.1186L23.2947 15.1186C22.3109 15.1186 21.3674 15.509 20.6718 16.2039C19.9761 16.8988 19.5853 17.8413 19.5853 18.8241L19.5853 55.8794C19.5853 56.8622 19.9761 57.8048 20.6718 58.4997C21.3674 59.1946 22.3109 59.585 23.2947 59.585L30.7134 59.585L30.7134 55.8794L23.2947 55.8794L23.2947 18.8241L30.7134 18.8241L30.7134 22.5296L34.4227 22.5296L34.4227 18.8241L49.2601 18.8241L49.2601 22.5296L52.9695 22.5296L52.9695 18.8241L60.3882 18.8241L60.3882 26.2352L64.0975 26.2352L64.0975 18.8241C64.0975 17.8413 63.7067 16.8988 63.0111 16.2039C62.3156 15.509 61.3719 15.1186 60.3882 15.1186Z" fill="white"/>
</svg>
