<svg width="159" height="127" viewBox="0 0 159 127" fill="none" xmlns="http://www.w3.org/2000/svg">
<path d="M143.853 59.6782C142.701 36.7422 128.493 15.3102 107.373 5.53416C84.3334 -4.61784 56.3014 -0.481833 37.1014 15.3102C18.6694 30.3502 10.2214 54.7902 15.5974 77.7262C20.5894 100.286 38.6374 118.71 61.2934 124.726C88.5574 132.246 113.517 119.462 128.877 97.6542C115.053 115.702 93.9334 127.734 70.5094 123.598C47.0854 119.462 27.8854 102.166 22.5094 79.6062C16.7494 55.5422 28.2694 30.3502 50.1574 17.9422C72.8134 5.15816 104.685 10.0462 119.661 31.8542C123.501 37.1182 126.189 43.5102 127.341 49.9022C128.493 55.1662 128.109 60.8062 128.877 66.0702C129.645 70.9582 133.869 77.3502 139.629 73.9662C144.621 70.9582 144.237 64.5662 143.853 59.6782C144.237 62.3102 143.853 58.1742 143.853 59.6782Z" fill="white"/>
</svg>
